<?xml version="1.0" encoding="utf-8"?>
<!-- Svg Vector Icons : http://www.onlinewebfonts.com/icon -->
<!DOCTYPE svg PUBLIC "-//W3C//DTD SVG 1.1//EN" "http://www.w3.org/Graphics/SVG/1.1/DTD/svg11.dtd">
<svg version="1.1" xmlns="http://www.w3.org/2000/svg" xmlns:xlink="http://www.w3.org/1999/xlink" x="0px" y="0px" viewBox="0 0 1000 1000" enable-background="new 0 0 1000 1000" xml:space="preserve">
<metadata> Svg Vector Icons : http://www.onlinewebfonts.com/icon </metadata>
<g><path d="M74.5,81.2c-32,0-58.4,26.4-58.4,58.4v77.9v564.9v76.1c-3.7,0.3-6.4,3.6-6.1,7.3c0.3,3.7,3.6,6.4,7.3,6.1c5.5,26.5,29.2,46.9,57.2,46.9h759.6c29.1,0,52.9-21.9,57.2-49.9c0.2-1.2,0.5-2.4,0.6-3.7c0.3-0.4,0.3-0.9,0-1.2l0.6-3c0-0.2,0-0.4,0-0.6l96.8-522.2l0.6-1.8v-1.8c0-32-26.4-58.4-58.4-58.4v-58.4c0-32-26.4-58.4-58.4-58.4H367.3c0.1,0.1-0.2,0-0.6,0c-0.6-0.4-2.4-1.9-5.5-5.5c-4.8-5.5-10.3-14.6-16.4-24.3c-6.1-9.8-12.6-20.1-20.7-29.2c-8.1-9.2-19.4-18.9-35.3-18.9H74.5z M74.5,120.2h214.3c-1.2,0,1.3,0,6.1,5.5c4.8,5.5,10.3,14.6,16.4,24.3c6.1,9.7,12.8,20.1,20.7,29.2c7.9,9.1,18.7,18.9,34.7,18.9h506.4c11,0,19.5,8.5,19.5,19.5V276H171.9c-30.7,0-55.1,24.6-57.2,54.8h-0.6l-0.6,3.7L55.1,649.7V217.6v-77.9C55.1,128.7,63.6,120.2,74.5,120.2z M171.9,315h736.5h7.9h15.2c11,0,19.5,8.5,19.5,19.5l-95.6,516.8l-0.6,1.2c-0.7-0.2-1.4,0.2-1.5,0.9c-0.2,0.7,0.2,1.4,0.9,1.5l0,0c-0.7-0.2-1.4,0.2-1.5,0.9c-0.2,0.7,0.2,1.4,0.9,1.5l0,0c-0.3,0.4-0.3,0.9,0,1.2c-0.1,0.2-0.1,0.4,0,0.6c-0.8-0.2-1.7,0.4-1.8,1.2c-0.2,0.8,0.4,1.7,1.2,1.8l0,0c-0.1,0.6,0.1,1.2,0,1.8c-0.7,0-1.2,0.5-1.2,1.2c0,0.7,0.5,1.2,1.2,1.2c-2.4,7.9-10,13.4-18.9,13.4H74.5c-11,0-19.5-8.5-19.5-19.5l96.8-522.2l0.6-1.8v-1.8C152.5,323.5,161,315,171.9,315z"/></g>
</svg>